<svg width="265" height="54" viewBox="0 0 265 54" fill="none" xmlns="http://www.w3.org/2000/svg">
<path d="M213.242 46.4187L213.236 46.4063C212.324 44.3895 211.887 42.125 211.887 39.644V4.7C211.887 3.41196 212.311 2.24648 213.222 1.33534C214.133 0.424201 215.299 0 216.587 0C217.875 0 219.04 0.424201 219.952 1.33534C220.863 2.24648 221.287 3.41196 221.287 4.7V39.644C221.287 41.0424 221.552 42.0615 221.979 42.7922C222.389 43.4957 222.726 43.584 222.987 43.584H224.587C225.826 43.584 226.933 44.0361 227.754 44.9809C228.591 45.8942 228.967 47.038 228.967 48.284C228.967 49.7383 228.303 50.9395 227.141 51.7956C226.01 52.6289 224.628 52.984 223.115 52.984H222.987C220.819 52.984 218.849 52.3866 217.13 51.1735C215.447 49.9852 214.153 48.3852 213.242 46.4187Z" fill="#0866FF"/>
<path fill-rule="evenodd" clip-rule="evenodd" d="M264.561 29.632C264.242 27.5642 263.648 25.6445 262.769 23.8827C261.412 21.0333 259.407 18.7871 256.767 17.1824C254.101 15.5187 250.959 14.72 247.405 14.72C243.801 14.72 240.548 15.5431 237.691 17.2274C234.849 18.8598 232.611 21.1497 230.99 24.0676L230.986 24.0748C229.396 26.9742 228.625 30.3018 228.625 34.012C228.625 37.698 229.447 41.0321 231.127 43.9722L231.134 43.9845L231.141 43.9967C232.856 46.8707 235.203 49.1454 238.158 50.8074L238.17 50.8142L238.182 50.8207C241.2 52.4458 244.607 53.24 248.365 53.24C250.513 53.24 252.723 52.8432 254.987 52.0738C257.285 51.3076 259.258 50.2978 260.871 49.0191C261.9 48.2282 262.546 47.1256 262.471 45.7688C262.4 44.5027 261.758 43.4486 260.813 42.6153L260.802 42.605L260.79 42.595C259.935 41.8714 258.906 41.5478 257.795 41.6002C256.737 41.6093 255.762 41.9634 254.902 42.5944L254.895 42.5992L254.889 42.604C254.193 43.126 253.211 43.6389 251.897 44.1178C250.679 44.5352 249.503 44.736 248.365 44.736C246.159 44.736 244.266 44.2546 242.642 43.3318C240.991 42.3938 239.713 41.1313 238.782 39.5301C238.455 38.9687 238.185 38.3766 237.971 37.752H260.397C261.574 37.752 262.658 37.3878 263.526 36.5862L263.548 36.5659L263.57 36.5447C264.416 35.6984 264.841 34.6296 264.841 33.436C264.841 32.2298 264.763 31.0648 264.606 29.9427L264.532 29.484L264.561 29.632ZM247.405 23.224C245.2 23.224 243.393 23.7048 241.921 24.6005C240.468 25.5103 239.359 26.7599 238.583 28.3861L238.577 28.3983C238.384 28.7936 238.213 29.2047 238.066 29.632H255.615C255.441 29.0141 255.219 28.4323 254.952 27.885L254.949 27.8783L254.946 27.8716C254.246 26.3982 253.272 25.2713 252.021 24.4496C250.817 23.658 249.303 23.224 247.405 23.224Z" fill="#0866FF"/>
<path fill-rule="evenodd" clip-rule="evenodd" d="M187.352 14.72C183.777 14.72 180.505 15.5707 177.572 17.2923C174.7 18.9604 172.404 21.259 170.698 24.1644L170.694 24.1721L170.689 24.1798C169.012 27.1143 168.188 30.4042 168.188 34.012C168.188 37.5978 168.938 40.8703 170.471 43.796L170.477 43.8087L170.484 43.8213C172.053 46.6812 174.188 48.9826 176.881 50.7006L176.889 50.7056L176.896 50.7105C179.625 52.4042 182.697 53.24 186.072 53.24C189.445 53.24 192.518 52.4042 195.247 50.7105L195.254 50.7056L195.262 50.7006C195.886 50.3028 196.478 49.8737 197.04 49.4135C197.22 50.2544 197.611 51.0198 198.223 51.6755L198.258 51.7133L198.296 51.7486C199.235 52.625 200.399 53.048 201.688 53.048C202.976 53.048 204.141 52.6238 205.052 51.7127C205.985 50.7799 206.451 49.604 206.451 48.284V33.0276L206.43 33.0182C206.287 29.7941 205.444 26.836 203.882 24.1726C202.218 21.2641 199.943 18.9641 197.073 17.2954C194.178 15.57 190.925 14.72 187.352 14.72ZM195.888 39.4422C195.031 41.0051 193.87 42.2386 192.392 43.1647C190.943 44.0314 189.277 44.48 187.352 44.48C185.478 44.48 183.806 44.0355 182.304 43.1604C180.827 42.2335 179.644 40.9976 178.744 39.4304C177.896 37.8364 177.46 36.0408 177.46 34.012C177.46 31.9297 177.9 30.137 178.744 28.5941C179.647 26.9776 180.831 25.7469 182.299 24.8663L182.308 24.8607C183.813 23.9436 185.482 23.48 187.352 23.48C189.27 23.48 190.932 23.9465 192.38 24.852L192.392 24.8593L192.404 24.8663C193.867 25.7442 195.025 26.9687 195.885 28.5755L195.888 28.582L195.892 28.5885C196.737 30.1327 197.18 31.9272 197.18 34.012C197.18 36.0458 196.741 37.8453 195.888 39.4422Z" fill="#0866FF"/>
<path d="M127.069 16.0315C127.942 16.7266 128.5 17.7887 128.876 18.9628L134.292 35.901L139.448 18.4848C139.73 17.5251 140.233 16.6889 140.988 16.0499C141.846 15.2782 142.94 14.976 144.087 14.976C145.204 14.976 146.259 15.2844 147.1 16.0303C147.914 16.6744 148.438 17.538 148.679 18.5486L153.159 36.0057L158.588 18.9833L158.591 18.974C158.941 17.8292 159.484 16.8187 160.309 16.0885C161.165 15.3315 162.212 14.976 163.351 14.976C164.938 14.976 166.367 15.5829 167.118 17.0714C167.812 18.4037 167.667 19.9442 167.138 21.4434L157.679 49.8189C157.405 50.7477 156.84 51.5078 156.074 52.097L156.044 52.1199L156.013 52.1413C155.188 52.7122 154.245 52.984 153.239 52.984C152.257 52.984 151.337 52.7027 150.508 52.1698L150.477 52.1499L150.447 52.1286C149.626 51.542 149.005 50.7645 148.725 49.7841L148.722 49.7738L143.853 31.7647L138.746 49.7811L138.745 49.7841C138.465 50.7645 137.844 51.542 137.023 52.1286L137.014 52.135L137.005 52.1413C136.18 52.7122 135.237 52.984 134.231 52.984C133.249 52.984 132.329 52.7027 131.5 52.1698L131.447 52.1356L131.396 52.097C130.638 51.5135 130.066 50.7727 129.746 49.8765L129.741 49.8615L120.248 21.3811L120.235 21.3308C119.854 19.8553 119.783 18.4138 120.305 17.1739L120.312 17.1571L120.319 17.1405C121.027 15.5682 122.519 14.976 124.119 14.976C125.217 14.976 126.243 15.2971 127.069 16.0315Z" fill="#0866FF"/>
<path fill-rule="evenodd" clip-rule="evenodd" d="M100.789 14.72C97.1068 14.72 93.7925 15.54 90.8918 17.2222C88.0099 18.8509 85.7286 21.1363 84.0626 24.0518L84.0588 24.0586C82.4202 26.9612 81.625 30.2946 81.625 34.012C81.625 37.6908 82.4219 41.0192 84.0538 43.9565L84.0607 43.9689L84.0678 43.9812C85.7348 46.8521 88.0129 49.1303 90.8838 50.7972L90.8917 50.8018L90.8996 50.8063C93.7994 52.4433 97.1107 53.24 100.789 53.24C104.467 53.24 107.779 52.4433 110.678 50.8063L110.686 50.8018L110.694 50.7972C113.569 49.1281 115.83 46.8449 117.455 43.9654L117.46 43.9565C119.092 41.0192 119.889 37.6908 119.889 34.012C119.889 30.2927 119.071 26.9577 117.389 24.0552C115.765 21.1371 113.504 18.8509 110.623 17.2224C107.725 15.5416 104.432 14.72 100.789 14.72ZM109.329 39.4996L109.323 39.5117L109.316 39.524C108.503 41.0761 107.371 42.278 105.905 43.1578C104.458 44.0263 102.768 44.48 100.789 44.48C98.8102 44.48 97.1203 44.0263 95.6727 43.1578C94.2006 42.2745 93.0417 41.0645 92.1846 39.4996C91.3412 37.9594 90.897 36.1447 90.897 34.012C90.897 31.8794 91.3412 30.0647 92.1846 28.5245L92.1882 28.518L92.1917 28.5115C93.0511 26.9047 94.2095 25.6802 95.6727 24.8023C97.1203 23.9338 98.8102 23.48 100.789 23.48C102.768 23.48 104.458 23.9338 105.905 24.8023C107.363 25.6766 108.494 26.893 109.31 28.4872L109.319 28.506L109.329 28.5245C110.173 30.0647 110.617 31.8794 110.617 34.012C110.617 36.1447 110.173 37.9594 109.329 39.4996Z" fill="#0866FF"/>
<path d="M75.7059 20.9941C76.5428 21.9514 76.9816 23.135 76.6756 24.4356C76.4018 25.5993 75.6647 26.521 74.6857 27.228L74.6794 27.2326C73.753 27.8943 72.6833 28.1349 71.5628 27.9372L71.5211 27.9298L71.4799 27.9202C70.4482 27.6774 69.5464 27.1362 68.7788 26.3687L68.7631 26.3529L68.7478 26.3367C66.9475 24.4262 64.743 23.48 62.0315 23.48C60.1006 23.48 58.459 23.9311 57.0576 24.7935L57.0456 24.8009L57.0335 24.8081C55.6219 25.6406 54.5116 26.8154 53.6963 28.372C52.8907 29.91 52.4595 31.7738 52.4595 34.012C52.4595 36.102 52.8826 37.9015 53.6898 39.4477C54.5468 41.008 55.7069 42.2396 57.1828 43.1647C58.6235 44.0261 60.3296 44.48 62.3515 44.48C63.7276 44.48 64.8685 44.3231 65.7978 44.0394C66.7703 43.7131 67.6489 43.2277 68.4417 42.5791L68.4456 42.5759C69.3083 41.875 70.2887 41.4234 71.3719 41.3494C72.4874 41.2292 73.5236 41.5432 74.3845 42.2683C75.3369 43.055 75.9915 44.0662 76.1298 45.2975C76.2758 46.5516 75.7957 47.6491 74.9322 48.5127L74.9131 48.5318L74.8933 48.5501C71.5155 51.6934 67.2982 53.24 62.3515 53.24C58.7046 53.24 55.3926 52.4169 52.4553 50.7384L52.443 50.7314L52.4308 50.7241C49.5684 49.0159 47.2952 46.7205 45.6303 43.8532L45.6232 43.8409L45.6163 43.8285C43.9875 40.8967 43.1875 37.6125 43.1875 34.012C43.1875 30.3333 43.9844 27.0049 45.6163 24.0676C47.2373 21.1497 49.4753 18.8599 52.3172 17.2275C55.1747 15.5431 58.4278 14.72 62.0315 14.72C64.7445 14.72 67.2649 15.2493 69.5693 16.3288C71.8738 17.3655 73.9184 18.9324 75.7059 20.9941Z" fill="#0866FF"/>
<path fill-rule="evenodd" clip-rule="evenodd" d="M19.164 14.72C15.589 14.72 12.3168 15.5709 9.38372 17.2926C6.51206 18.9607 4.21681 21.2592 2.51057 24.1644L2.50606 24.1721L2.50164 24.1798C0.824785 27.1143 0 30.4042 0 34.012C0 37.5978 0.750743 40.8703 2.28325 43.796L2.2899 43.8087L2.29678 43.8213C3.8651 46.6812 6.00009 48.9826 8.69328 50.7006L8.70109 50.7056L8.70896 50.7105C11.4377 52.4042 14.51 53.24 17.884 53.24C21.258 53.24 24.3303 52.4042 27.059 50.7105L27.0669 50.7056L27.0747 50.7006C27.6983 50.3028 28.2909 49.8737 28.8524 49.4135C29.0325 50.2544 29.4235 51.0198 30.0354 51.6755L30.0707 51.7133L30.1085 51.7486C31.0475 52.625 32.2114 53.048 33.5 53.048C34.788 53.048 35.9535 52.6238 36.8647 51.7127C37.7974 50.7799 38.264 49.604 38.264 48.284V33.0276L38.2422 33.0182C38.0997 29.7939 37.2565 26.8356 35.6939 24.172C34.0303 21.2638 31.7555 18.9639 28.8849 17.2953C25.9905 15.57 22.737 14.72 19.164 14.72ZM27.7009 39.4419C26.8436 41.005 25.6824 42.2385 24.2047 43.1647C22.7553 44.0314 21.0892 44.48 19.164 44.48C17.2903 44.48 15.6189 44.0355 14.1165 43.1604C12.6398 42.2334 11.4561 40.9974 10.5568 39.4301C9.70831 37.8362 9.272 36.0406 9.272 34.012C9.272 31.9296 9.71302 30.1368 10.5567 28.5938C11.46 26.9774 12.6441 25.7469 14.1118 24.8663L14.1209 24.8607C15.6251 23.9436 17.2943 23.48 19.164 23.48C21.0826 23.48 22.7441 23.9465 24.193 24.852L24.2046 24.8593L24.2163 24.8663C25.6795 25.7442 26.8379 26.9687 27.6973 28.5755L27.7008 28.582L27.7044 28.5885C28.55 30.1327 28.992 31.9272 28.992 34.012C28.992 36.0457 28.5535 37.8451 27.7009 39.4419Z" fill="#0866FF"/>
</svg>
